<?xml version="1.0" encoding="UTF-8"?>
<svg width="200px" height="17px" viewBox="0 0 200 17" version="1.1" xmlns="http://www.w3.org/2000/svg" xmlns:xlink="http://www.w3.org/1999/xlink">
    <title>logo</title>
    <g id="Page-1" stroke="none" stroke-width="1" fill="none" fill-rule="evenodd">
        <g id="logo">
            <polygon id="Path" fill="#FDBC18" points="179.8 4.1 183.4 0 183.4 4.9 180.4 8.3 183.4 11.6 183.4 16.5 179.8 12.4 177.8 10.2 179.5 8.3 177.8 6.3"></polygon>
            <polygon id="Path" fill="#FFFFFF" points="179.1 8.3 175.5 4.1 171.9 0 171.9 4.9 174.8 8.3 171.9 11.6 171.9 16.5 175.5 12.4"></polygon>
            <polygon id="Path" fill="#231F20" points="183.4 0 179.8 4.1 177.8 6.3 179.5 8.3 177.8 10.2 179.8 12.4 183.4 16.5 183.4 11.6 180.4 8.3 183.4 4.9"></polygon>
            <path d="M198.6,11.6 C198.6,12 198.6,12.3 198.6,12.6 C198.6,12.9 198.6,13.2 198.6,13.4 C198.6,13.6 198.7,13.7 198.9,13.7 L200,14 L200,14.4 C199.2,14.4 198.3,14.4 197.3,14.4 C196.3,14.4 195.3,14.4 194.5,14.4 L194.5,14 L195.7,13.7 C195.8,13.7 195.9,13.6 195.9,13.4 C195.9,13.2 195.9,12.9 195.9,12.6 C195.9,12.3 195.9,12 195.9,11.6 L195.9,4.5 C195.9,4.2 195.9,3.9 195.9,3.7 C195.9,3.5 195.9,3.2 195.9,3 C195.9,2.8 195.8,2.7 195.7,2.7 L194.5,2.4 L194.5,1.9 C195.3,1.9 196.2,1.9 197.2,1.9 C198.2,1.9 199.2,1.9 200,1.9 L200,2.4 L198.8,2.7 C198.7,2.7 198.6,2.8 198.6,3 C198.6,3.2 198.6,3.4 198.6,3.7 C198.6,3.9 198.6,4.2 198.6,4.5 L198.6,11.6 L198.6,11.6 Z M153.6,5.3 C153.5,5.6 153.4,5.9 153.3,6.3 L152,9.5 L155,9.5 L153.9,6.3 C153.8,5.9 153.7,5.6 153.6,5.3 Z M151.7,10.4 L151.1,12.1 C151,12.4 150.9,12.7 150.8,12.9 C150.7,13.1 150.7,13.3 150.7,13.4 C150.7,13.5 150.7,13.6 150.8,13.6 C150.9,13.7 150.9,13.7 151,13.7 L151.9,14 L151.9,14.5 C151,14.5 150.3,14.5 149.8,14.5 C149.2,14.5 148.6,14.5 147.9,14.5 L147.9,14.1 L148.9,13.8 C149.1,13.7 149.3,13.6 149.4,13.5 C149.5,13.3 149.6,13.1 149.8,12.8 L154,1.8 L155,1.7 L158.9,12.6 C159,13 159.2,13.3 159.3,13.4 C159.4,13.5 159.6,13.6 159.8,13.7 L160.7,14 L160.7,14.4 C159.9,14.4 159.1,14.4 158.3,14.4 C157.2,14.4 156.2,14.4 155.1,14.4 L155.1,14 L156,13.7 C156.1,13.7 156.2,13.6 156.3,13.6 C156.4,13.5 156.4,13.5 156.4,13.4 C156.4,13.3 156.4,13.1 156.3,12.9 C156.2,12.7 156.2,12.5 156,12.1 L155.4,10.4 L151.7,10.4 L151.7,10.4 Z M131.6,14.4 C130.6,14.4 129.6,14.4 128.6,14.4 L128.6,14 L130,13.6 C130.1,13.6 130.2,13.5 130.2,13.3 C130.2,12.9 130.2,12.3 130.2,11.6 L130.2,2.8 L127.6,2.8 L126.8,5.2 L126.3,5.3 L126.1,2 L126.2,1.9 C127.7,1.9 129.1,1.9 130.4,1.9 L132.9,1.9 C134.2,1.9 135.7,1.9 137.1,1.9 L137.2,2 L136.6,5.3 L136.1,5.4 L135.5,2.9 L132.9,2.9 L132.9,11.6 C132.9,12.3 132.9,12.9 132.9,13.3 C132.9,13.4 133,13.5 133.1,13.6 L134.5,14 L134.5,14.4 C133.6,14.4 132.6,14.4 131.6,14.4 Z M100.2,14.4 C99.2,14.4 98.2,14.4 97.2,14.4 L97.2,14 L98.6,13.6 C98.7,13.6 98.8,13.5 98.8,13.3 C98.8,12.9 98.8,12.3 98.8,11.6 L98.8,2.8 L96.2,2.8 L95.4,5.2 L94.9,5.3 L94.7,2 L94.8,1.9 C96.3,1.9 97.7,1.9 99,1.9 L101.5,1.9 C102.8,1.9 104.3,1.9 105.7,1.9 L105.8,2 L105.2,5.3 L104.7,5.4 L104,2.8 L101.4,2.8 L101.4,11.5 C101.4,12.2 101.4,12.8 101.4,13.2 C101.4,13.3 101.5,13.4 101.6,13.5 L103,13.9 L103,14.3 C102.2,14.4 101.2,14.4 100.2,14.4 Z M74.5,1.9 L76.8,1.9 C78.2,1.9 79.7,1.9 81.3,1.9 L81.3,2 L80.7,5 L80.3,5 L79.7,2.8 L76.2,2.8 L76.2,7.5 L76.7,7.5 C77.2,7.5 77.8,7.5 78.4,7.5 C78.6,7.5 78.7,7.4 78.7,7.3 L79,6.1 L79.6,6.1 C79.6,7 79.6,7.6 79.6,8 C79.6,8.4 79.6,9.1 79.6,9.9 L79,9.9 L78.7,8.6 C78.7,8.4 78.6,8.4 78.4,8.3 C77.8,8.3 77.2,8.3 76.7,8.3 L76.2,8.3 L76.2,11.4 C76.2,12.1 76.2,12.7 76.2,13.3 L79.8,13.3 L80.9,11 L81.4,10.9 L81.2,14.2 L81.1,14.3 C79.6,14.3 78.2,14.3 76.8,14.3 L74.4,14.3 C73.6,14.3 72.8,14.3 72,14.3 L72,13.9 L73.2,13.6 C73.3,13.6 73.4,13.5 73.4,13.3 C73.4,13.1 73.4,12.8 73.4,12.5 C73.4,12.2 73.4,11.9 73.4,11.5 L73.4,4.5 C73.4,4.2 73.4,3.9 73.4,3.7 C73.4,3.5 73.4,3.2 73.4,3 C73.4,2.8 73.3,2.7 73.2,2.7 L72,2.4 L72,1.9 C73,1.9 73.8,1.9 74.5,1.9 Z M51.1,8.2 L54.8,4.2 C55.1,3.9 55.3,3.6 55.5,3.4 C55.7,3.2 55.8,3 55.8,2.9 C55.8,2.8 55.7,2.7 55.6,2.7 L54.8,2.5 L54.8,2 C55.4,2 56.1,2 56.9,2 C57.6,2 58.3,2 59,2 L59,2.5 L58,2.8 C57.7,2.9 57.5,3 57.2,3.2 C57,3.4 56.8,3.6 56.5,3.9 L53.4,7.3 L57.3,13.1 C57.5,13.4 57.7,13.6 57.8,13.7 C57.9,13.8 58.1,13.9 58.3,14 L59.2,14.3 L59.2,14.7 C58.5,14.7 57.9,14.7 57.2,14.7 C56.5,14.7 55.8,14.7 55.1,14.7 C54.9,14.3 54.4,13.5 53.6,12.3 L51.1,8.2 Z M50.9,4.4 L50.9,11.6 C50.9,12 50.9,12.3 50.9,12.6 C50.9,12.9 50.9,13.2 50.9,13.4 C50.9,13.6 51,13.7 51.1,13.7 L52.1,14 L52.1,14.4 C51.4,14.4 50.5,14.4 49.5,14.4 C48.5,14.4 47.5,14.4 46.7,14.4 L46.7,14 L47.9,13.7 C48.1,13.7 48.1,13.6 48.1,13.4 C48.1,13.2 48.1,12.9 48.1,12.6 C48.1,12.3 48.1,12 48.1,11.6 L48.1,4.5 C48.1,4.2 48.1,3.9 48.1,3.7 C48.1,3.5 48.1,3.2 48.1,3 C48.1,2.8 48,2.7 47.9,2.7 L46.7,2.4 L46.7,1.9 C47.5,1.9 48.4,1.9 49.4,1.9 C50.4,1.9 51.3,1.9 52,1.9 L52.1,2.4 L51,2.7 C50.9,2.7 50.8,2.8 50.8,3 C50.8,3.2 50.8,3.5 50.8,3.7 C50.9,3.9 50.9,4.2 50.9,4.4 Z M27,5.3 C26.9,5.6 26.8,5.9 26.7,6.3 L25.5,9.5 L28.5,9.5 L27.4,6.3 C27.2,5.9 27.1,5.6 27,5.3 Z M25.1,10.4 L24.5,12.1 C24.4,12.4 24.3,12.7 24.2,12.9 C24.1,13.1 24.1,13.3 24.1,13.4 C24.1,13.5 24.1,13.6 24.2,13.6 C24.3,13.7 24.3,13.7 24.5,13.7 L25.4,14 L25.4,14.5 C24.5,14.5 23.8,14.5 23.3,14.5 C22.7,14.5 22.1,14.5 21.4,14.5 L21.4,14.1 L22.4,13.8 C22.6,13.7 22.8,13.6 22.9,13.5 C23,13.3 23.1,13.1 23.3,12.8 L27.7,2 L28.7,1.9 L32.6,12.8 C32.7,13.2 32.9,13.5 33,13.6 C33.1,13.7 33.3,13.8 33.5,13.9 L34,14 L34,14.4 C33.2,14.4 32.4,14.4 31.6,14.4 C30.5,14.4 29.5,14.4 28.4,14.4 L28.4,14 L29.3,13.7 C29.4,13.7 29.5,13.6 29.6,13.6 C29.7,13.5 29.7,13.5 29.7,13.4 C29.7,13.3 29.7,13.1 29.6,12.9 C29.5,12.7 29.5,12.5 29.3,12.1 L28.7,10.4 L25.1,10.4 Z M4.1,11.6 C4.1,12 4.1,12.3 4.1,12.6 C4.1,12.9 4.1,13.1 4.1,13.4 C4.1,13.5 4.2,13.6 4.3,13.7 L5.7,14 L5.7,14.4 C4.8,14.4 3.8,14.4 2.8,14.4 C1.8,14.4 0.8,14.4 0,14.4 L0,14 L1.2,13.7 C1.4,13.7 1.4,13.6 1.4,13.4 C1.4,13.2 1.4,12.9 1.4,12.6 C1.4,12.3 1.4,12 1.4,11.6 L1.4,4.5 C1.4,4.2 1.4,3.9 1.4,3.7 C1.4,3.5 1.4,3.2 1.4,3 C1.4,2.8 1.3,2.7 1.2,2.7 L0,2.4 L0,1.9 C0.8,1.9 1.7,1.9 2.5,1.9 C3.1,1.9 3.6,1.9 4.1,1.9 C4.6,1.9 5.1,1.9 5.5,1.9 C7.1,1.9 8.3,2.2 9.2,2.7 C10,3.3 10.4,4.1 10.4,5.2 C10.4,6.5 10,7.5 9.1,8.2 C8.3,8.9 7.1,9.3 5.5,9.3 C5.1,9.3 4.6,9.3 4.1,9.2 L4.1,11.6 Z M4.1,8.3 C4.4,8.4 4.8,8.4 5.1,8.4 C5.9,8.4 6.5,8.2 6.9,7.7 C7.3,7.2 7.5,6.5 7.5,5.5 C7.5,4.6 7.3,3.9 6.9,3.4 C6.6,3 6,2.7 5.1,2.7 C4.8,2.7 4.4,2.7 4.1,2.8 L4.1,8.3 Z" id="Shape" fill="#FFFFFF" fill-rule="nonzero"></path>
        </g>
    </g>
</svg>